<?xml version="1.0" standalone="no"?> <!DOCTYPE svg PUBLIC "-//W3C//DTD SVG 1.0//EN" "http://www.w3.org/TR/2001/REC-SVG-20010904/DTD/svg10.dtd" > <svg xmlns="http://www.w3.org/2000/svg" width="100%" height="100%">
<defs >
<font id="Diavlo" horiz-adv-x="442" ><font-face
    font-family="Diavlo Book"
    units-per-em="1000"
    panose-1="2 0 0 0 0 0 0 0 0 0"
    ascent="750"
    descent="-249"
    alphabetic="0" />
<missing-glyph horiz-adv-x="250" />
<glyph unicode=" " glyph-name="space" horiz-adv-x="280" />
<glyph unicode="!" glyph-name="exclam" horiz-adv-x="260" d="M190 660V171Q181 171 168 172T132 185T110 221V710Q113 710 118 710T138 707T162 700T181 685T190 660ZM190 66V0H127Q120 0 115 5T110 18V84H172Q180 84 185 79T190 66Z" />
<glyph unicode="&quot;" glyph-name="quotedbl" horiz-adv-x="373" d="M233 590L234 698H266Q305 698 305 644V610Q305 486 239 486Q217 486 204 499Q233 506 233 590ZM80 590L81 698H113Q152 698 152 644V610Q152 486 86 486Q64 486 51 499Q80 506 80 590Z" />
<glyph unicode="#" glyph-name="numbersign" horiz-adv-x="672" d="M355 52L388 193H208L160 -10Q157 -9 152 -8T134 -2T113 9T98 27T96 52L129 193H31Q30 196 30 201T29 218T32 239T43 257T66 265H146L185 429H88Q87 432 87 437T86 454T89 475T100 493T123 501H202L253
711Q256 710 261 709T279 703T300 691T315 673T317 648L282 501H461L512 711Q515 710 520 709T538 703T559 691T574 673T576 648L541 501H641Q642 498 642 493T643 476T641 455T629 437T606 429H523L484 265H584Q585 262 585 257T586 240T584 219T572 201T549 193H467L419
-10Q416 -9 411 -8T393 -2T372 9T357 27T355 52ZM264 429L225 265H405L444 429H264Z" />
<glyph unicode="$" glyph-name="dollar" horiz-adv-x="612" d="M266 -33V-11Q65 -4 65 104Q65 139 88 184Q88 119 134 92T266 62V328Q224 336 200 341T143 360T93 391T63 439T50 511Q50 613 105 659T266 711V771Q269 771 273 771T288 768T307 761T322 746T329
721V711Q418 708 468 683T518 597Q518 562 495 516Q495 582 453 608T329 637V403Q367 396 393 389T450 368T499 333T529 279T542 200Q542 103 486 50T329 -11V-83Q326 -83 322 -83T307 -80T288 -73T273 -58T266 -33ZM454 195Q454 250 423 276T329 316V63Q454 74
454 195ZM138 520Q138 470 169 448T266 414V637Q198 632 168 606T138 520Z" />
<glyph unicode="%" glyph-name="percent" horiz-adv-x="771" d="M338 613V492Q338 446 299 422T191 397T84 421T44 492V613Q44 658 84 684T191 710T298 684T338 613ZM272 519V588Q272 620 255 636T191 652Q143 652 127 637T110 588V519Q110 485 126 470T191 455Q238
455 255 470T272 519ZM727 206V85Q727 39 688 15T580 -10T473 14T433 85V206Q433 251 473 277T580 303T687 277T727 206ZM661 112V181Q661 213 644 229T580 245Q532 245 516 230T499 181V112Q499 78 515 63T580 48Q627 48 644 63T661 112ZM134 157L607 631Q609
629 612 625T623 610T633 589T636 566T624 543L151 69Q149 71 146 75T135 90T125 111T122 134T134 157Z" />
<glyph unicode="&amp;" glyph-name="ampersand" horiz-adv-x="593" d="M65 174V204Q65 259 92 302T174 360Q123 374 99 413T75 506V531Q75 613 141 662T311 712Q365 712 412 701T495 665T536 604T513 516Q513 579 455 608T311 638Q237 638 198 605T159 516Q159
453 190 425T299 394V526Q302 526 307 526T326 522T349 515T367 500T376 475V394H504Q504 386 503 374T489 343T454 323H376V248Q376 228 380 209T388 181L393 172Q363 175 343 188T314 219T302 249T299 272V323H268Q149 308 149 189Q149 133 189 98T311 62Q404
62 463 91T523 184Q552 133 546 96T504 35T418 0T311 -12Q201 -12 133 39T65 174Z" />
<glyph unicode="&apos;" glyph-name="quotesingle" horiz-adv-x="220" d="M80 590L81 698H113Q152 698 152 644V610Q152 486 86 486Q64 486 51 499Q80 506 80 590Z" />
<glyph unicode="(" glyph-name="parenleft" horiz-adv-x="311" d="M135 256Q135 75 181 -56T291 -192Q262 -217 232 -217Q182 -217 140 -154T74 17T50 254T74 490T140 662T232 725Q262 725 291 700Q227 696 181 565T135 256Z" />
<glyph unicode=")" glyph-name="parenright" horiz-adv-x="311" d="M176 256Q176 434 130 565T20 700Q49 725 79 725Q129 725 171 662T237 491T261 254T237 18T171 -154T79 -217Q49 -217 20 -192Q84 -188 130 -57T176 256Z" />
<glyph unicode="*" glyph-name="asterisk" horiz-adv-x="393" d="M132 469L113 477Q88 492 88 518Q88 552 151 602Q117 614 86 614Q63 614 45 593Q43 607 43 614Q43 634 56 649T100 664Q118 664 171 642Q156 723 110 731Q130 751 152 751Q175 751 192 724T215
647Q265 689 265 722Q265 733 261 744L280 736Q305 721 305 695Q305 657 241 611Q272 599 307 599Q330 599 348 620Q350 606 350 599Q350 579 337 564T293 549Q278 549 223 572Q235 490 283 482Q263 462 241 462Q218 462 201 488T178 565Q127 524 127 490Q127 482
132 469Z" />
<glyph unicode="+" glyph-name="plus" horiz-adv-x="497" d="M210 108V220H73Q72 223 72 228T71 245T74 266T85 284T108 292H210V424Q213 425 218 425T235 426T256 424T274 412T282 389V292H424Q425 289 425 284T426 267T424 246T412 228T389 220H282V73Q279 72
274 72T257 71T236 74T218 85T210 108Z" />
<glyph unicode="," glyph-name="comma" horiz-adv-x="230" d="M68 89H91H140Q147 89 152 83T158 70V7Q158 -117 92 -117Q66 -117 47 -104Q74 -99 81 -67T83 -2L68 89Z" />
<glyph unicode="-" glyph-name="hyphen" horiz-adv-x="497" d="M108 292H424Q425 289 425 284T426 267T424 246T412 228T389 220H73Q72 223 72 228T71 245T74 266T85 284T108 292Z" />
<glyph unicode="." glyph-name="period" horiz-adv-x="230" d="M72 19V89H140Q147 89 152 83T158 70V0H91Q84 0 78 6T72 19Z" />
<glyph unicode="/" glyph-name="slash" horiz-adv-x="315" d="M19 -177L233 752Q236 751 241 750T259 744T280 732T295 714T297 689L83 -239Q80 -238 75 -237T57 -231T36 -220T21 -202T19 -177Z" />
<glyph unicode="0" glyph-name="zero" horiz-adv-x="632" d="M562 531V169Q562 81 496 35T316 -12T136 34T70 169V531Q70 619 136 665T316 712T496 666T562 531ZM478 184V516Q478 583 440 613T316 643T193 613T154 516V184Q154 117 192 87T316 57T439 87T478 184Z" />
<glyph unicode="1" glyph-name="one" horiz-adv-x="525" d="M163 700Q206 700 250 702T318 708L340 710Q331 660 331 616V74H502Q503 71 503 66T504 48T502 26T490 8T467 0H71Q70 3 70 8T69 26T72 48T83 66T106 74H247V629Q196 626 169 626Q73 626 73 550Q45 588
45 621Q45 660 76 680T163 700Z" />
<glyph unicode="2" glyph-name="two" horiz-adv-x="586" d="M55 0V88Q55 139 76 179T132 244T207 291T290 331T366 371T421 424T443 496V513Q443 568 404 603T291 638Q205 638 147 609T89 516Q60 567 66 604T107 665T189 700T291 712Q395 712 461 663T527 531V491Q527
437 506 396T450 329T375 284T292 246T216 208T161 157T139 83V74H465Q486 74 504 76T529 82L536 84Q536 81 536 75T532 55T524 29T506 9T476 0H55Z" />
<glyph unicode="3" glyph-name="three" horiz-adv-x="603" d="M543 202V172Q543 89 476 39T297 -12Q240 -12 191 -1T105 35T62 96T85 184Q85 121 144 92T297 62Q378 62 418 96T459 187Q459 308 340 323Q313 327 304 344Q295 361 297 394H305Q384 395 416 424T449
516Q449 571 410 604T297 638Q211 638 153 609T95 516Q66 567 72 604T113 665T195 700T297 712Q401 712 467 663T533 531V506Q533 452 509 413T434 360Q488 345 515 302T543 202Z" />
<glyph unicode="4" glyph-name="four" horiz-adv-x="541" d="M50 204H15Q18 266 66 353T177 516T287 644T353 712Q356 712 362 712T383 708T409 701T429 686T439 662V271H516Q516 262 515 251T501 222T466 204H439V-10Q432 -10 423 -9T396 -4T367 11T355 40V204H50ZM361
620Q352 601 340 589Q275 524 206 433T113 271H355V549L361 620Z" />
<glyph unicode="5" glyph-name="five" horiz-adv-x="572" d="M167 450H274Q391 450 456 405T522 264V172Q522 83 456 36T276 -12Q246 -12 216 -9T152 3T95 26T55 61T40 113T64 184Q64 121 123 92T276 62Q358 62 398 90T438 185V251Q438 381 276 381H149L84 380Q89
401 89 449V621Q89 624 89 629T92 648T99 672T114 691T139 700H414Q435 700 453 702T478 708L485 710Q485 707 485 701T481 681T473 655T455 635T425 626H173V506Q173 490 172 476T168 456L167 450Z" />
<glyph unicode="6" glyph-name="six" horiz-adv-x="627" d="M562 250V169Q562 81 496 35T316 -12T136 34T70 169V531Q70 619 136 665T316 712Q375 712 423 702T508 669T551 609T528 516Q528 579 469 608T316 638Q230 638 192 611T154 516V430L150 362Q152 365
156 369T175 386T209 407T259 423T326 431Q433 431 497 385T562 250ZM231 57T316 57T439 87T478 184V235Q478 302 441 332T326 362Q158 362 154 242V184Q154 117 192 87Z" />
<glyph unicode="7" glyph-name="seven" horiz-adv-x="541" d="M434 626H81Q60 626 42 624T17 618L10 616Q10 619 10 625T14 645T22 671T40 691T70 700H526Q526 632 507 571T458 462T391 369T317 281T250 197T200 103T181 -2Q166 -10 150 -10Q99 -10 99 27Q99 91
128 154T203 270T294 377T380 495T434 626Z" />
<glyph unicode="8" glyph-name="eight" horiz-adv-x="632" d="M70 169V204Q70 308 169 355Q80 397 80 501V531Q80 619 144 665T316 712T487 666T552 531V501Q552 397 463 355Q562 308 562 204V172Q562 83 496 36T316 -12Q202 -12 136 34T70 169ZM478 119T478 187T439
287T316 320T193 287T154 184Q154 117 192 87T316 57T439 88ZM164 583T164 516T196 420T308 389H324Q403 390 435 419T468 516T431 613T316 643T201 613Z" />
<glyph unicode="9" glyph-name="nine" horiz-adv-x="627" d="M65 452V531Q65 619 131 665T311 712T491 666T557 531V169Q557 81 491 35T311 -12Q252 -12 204 -2T119 31T76 91T99 184Q99 121 158 92T311 62Q397 62 435 89T473 184V272L477 340Q475 337 471 333T452
316T418 295T368 279T301 271Q194 271 130 317T65 452ZM396 643T311 643T188 613T149 516V467Q149 400 186 370T301 340Q473 340 473 460V516Q473 583 435 613Z" />
<glyph unicode=":" glyph-name="colon" horiz-adv-x="230" d="M87 19V89H155Q162 89 167 83T173 70V0H106Q98 0 93 6T87 19ZM87 382V452H155Q162 452 167 446T173 433V363H106Q98 363 93 368T87 382Z" />
<glyph unicode=";" glyph-name="semicolon" horiz-adv-x="230" d="M87 382V452H155Q162 452 167 446T173 433V363H106Q98 363 93 368T87 382ZM83 89H106H155Q162 89 167 83T173 70V7Q173 -117 107 -117Q82 -117 62 -104Q89 -99 96 -67T98 -2L83 89Z" />
<glyph unicode="&lt;" glyph-name="less" horiz-adv-x="416" d="M140 250L336 54Q313 16 286 16Q272 16 260 28L86 202Q60 228 60 250T87 299L287 499Q325 476 325 448Q325 436 313 424L140 250Z" />
<glyph unicode="=" glyph-name="equal" horiz-adv-x="497" d="M108 372H424Q426 361 426 348Q426 300 389 300H73Q71 310 71 323Q71 372 108 372ZM108 218H424Q426 207 426 194Q426 146 389 146H73Q71 156 71 169Q71 218 108 218Z" />
<glyph unicode="&gt;" glyph-name="greater" horiz-adv-x="416" d="M80 54L276 250L103 424Q91 436 91 448T100 473T120 492L129 499L329 299Q356 272 356 250T330 202L156 28Q144 16 130 16Q118 16 106 25T86 44L80 54Z" />
<glyph unicode="?" glyph-name="question" horiz-adv-x="529" d="M253 638Q181 638 139 613T97 536Q57 594 73 633T138 692T253 712Q359 712 424 667T489 541V516Q489 470 466 434T408 376T340 332T283 281T259 213V165Q256 165 251 165T233 168T209 176T191 192T183
218V238Q183 277 206 308T261 362T326 405T382 456T405 523Q405 577 367 607T253 638ZM261 66V0H198Q191 0 186 5T181 18V84H243Q250 84 255 79T261 66Z" />
<glyph unicode="@" glyph-name="at" horiz-adv-x="893" d="M743 234V402Q743 488 689 543T520 598H371Q258 598 204 543T150 402V95Q150 17 187 -32T286 -81Q314 -81 341 -71Q331 -132 238 -132Q164 -132 117 -71T70 82V415Q70 522 152 592T372 663H521Q659 663
741 593T823 415V221Q823 -12 491 -12Q423 -12 370 0T280 47T242 135T271 222T343 268T430 291T510 314T556 355Q556 397 531 419T440 442Q368 442 326 415T284 336Q257 374 257 409Q257 458 310 485T440 512Q535 512 585 470T636 351V196Q636 186 633 173T622
140T593 107T542 89Q559 126 559 172V276Q553 255 515 243T434 225T357 198T322 137Q322 96 370 74T494 52Q551 52 593 60T670 87T724 143T743 234Z" />
<glyph unicode="A" glyph-name="A" horiz-adv-x="627" d="M314 716L320 712Q325 708 335 698T358 674T386 637T418 587T450 520T481 437L562 177Q609 24 627 -4Q618 -7 601 -7Q580 -7 562 3T534 23T512 60T496 97T482 142Q479 153 477 158L457 223H169L150 158Q123
66 103 37Q73 -7 26 -7L0 -4Q16 21 65 177L146 437Q160 481 176 520T209 586T240 637T269 674T292 698T308 712L314 716ZM225 411L190 292H436L401 411Q390 449 377 483T353 538T333 575T318 598L314 604Q265 547 225 411Z" />
<glyph unicode="B" glyph-name="B" horiz-adv-x="592" d="M80 50V700H286Q522 700 522 531V501Q522 451 500 412T438 355Q481 335 506 295T532 204V174Q532 86 466 43T286 0H163Q160 0 154 0T134 3T109 11T89 26T80 50ZM294 320H164V69H286Q371 69 409 97T448
189Q448 320 294 320ZM286 631H164V389H294Q372 389 405 420T438 516Q438 578 402 604T286 631Z" />
<glyph unicode="C" glyph-name="C" horiz-adv-x="670" d="M356 638Q154 638 154 467V234Q154 62 356 62Q397 62 436 68T510 89T566 127T588 184Q608 146 609 116T596 64T555 28T496 4T427 -8T356 -12Q233 -12 152 44T70 219V481Q70 600 151 656T356 712Q393 712
427 708T495 696T555 673T595 636T610 585T588 516Q588 572 515 605T356 638Z" />
<glyph unicode="D" glyph-name="D" horiz-adv-x="701" d="M345 0H162Q155 0 145 1T119 7T91 22T80 50V700H345Q404 700 452 689T542 653T607 581T631 469V231Q631 166 608 119T543 47T453 11T345 0ZM345 631H164V69H345Q547 69 547 241V460Q547 631 345 631Z" />
<glyph unicode="E" glyph-name="E" horiz-adv-x="566" d="M411 347H164V69H521Q521 60 520 48T506 18T471 0H164Q161 0 155 0T135 3T109 10T89 25T80 50V700H521Q521 697 521 693T518 676T511 655T496 639T471 631H164V416H395Q425 416 446 420T474 428L481 431Q481
412 477 396T456 363T411 347Z" />
<glyph unicode="F" glyph-name="F" horiz-adv-x="493" d="M164 416H355Q385 416 406 420T434 428L441 431Q441 412 437 396T416 363T371 347H164V-10Q161 -10 155 -10T135 -7T109 0T89 15T80 40V700H491Q491 697 491 693T488 676T481 655T466 639T441 631H164V416Z" />
<glyph unicode="G" glyph-name="G" horiz-adv-x="692" d="M346 -12Q268 -12 209 9T110 83T70 219V481Q70 563 109 616T208 691T346 712Q385 712 421 708T492 696T553 673T595 636T610 585T588 516Q588 572 514 605T346 638Q154 638 154 467V234Q154 62 346 62Q442
62 490 94T538 224V286H398Q369 286 354 307T338 349V370Q364 355 415 355H622V209Q622 129 583 78T484 8T346 -12Z" />
<glyph unicode="H" glyph-name="H" horiz-adv-x="705" d="M541 40V327H164V-10Q161 -10 155 -10T135 -7T109 0T89 15T80 40V710Q83 710 89 710T109 707T135 700T155 685T164 660V397H541V710Q544 710 550 710T570 707T596 700T616 685T625 660V-10Q622 -10 616
-10T596 -7T570 0T550 15T541 40Z" />
<glyph unicode="I" glyph-name="I" horiz-adv-x="244" d="M80 40V710Q83 710 89 710T109 707T135 700T155 685T164 660V-10Q161 -10 155 -10T135 -7T109 0T89 15T80 40Z" />
<glyph unicode="J" glyph-name="J" horiz-adv-x="244" d="M164 658V-48Q164 -111 138 -155T66 -199Q33 -199 3 -172Q42 -172 61 -122T80 -14V710Q83 710 89 710T109 707T135 699T155 684T164 658Z" />
<glyph unicode="K" glyph-name="K" horiz-adv-x="597" d="M164 352V-10Q161 -10 155 -10T135 -7T109 0T89 15T80 40V710Q83 710 89 710T109 707T135 700T155 685T164 660V408Q215 412 254 429T328 479T389 552T451 655Q482 712 544 712L573 709Q560 690 537 646T492
564T441 487T373 419T292 380Q337 374 379 341T455 259T513 163T564 66T603 -5Q591 -8 574 -8Q503 -8 472 49Q465 62 446 98T420 148T395 191T366 235T337 270T302 303T263 326T217 344T164 352Z" />
<glyph unicode="L" glyph-name="L" horiz-adv-x="504" d="M448 0H164Q161 0 155 0T135 3T109 10T89 25T80 50V710Q83 710 89 710T109 707T135 700T155 685T164 660V69H412Q442 69 463 72T492 80L498 84Q498 53 487 27T448 0Z" />
<glyph unicode="M" glyph-name="M" horiz-adv-x="803" d="M639 40V504L646 594L424 140Q422 140 419 140T406 143T387 150T367 165T346 190L157 594Q164 546 164 504V-10Q161 -10 155 -10T135 -7T109 0T89 15T80 40V700H141Q190 700 214 650L400 251L615 700Q723
700 723 650V-10Q720 -10 714 -10T694 -7T668 0T648 15T639 40Z" />
<glyph unicode="N" glyph-name="N" horiz-adv-x="706" d="M215 650L506 176L552 100Q542 152 542 182V700Q545 700 551 700T571 697T597 690T617 675T626 650V-10Q596 -10 571 -4T532 12T507 32T494 48L490 55L154 598Q164 550 164 508V-10Q161 -10 155 -10T135
-7T109 0T89 15T80 40V700Q117 700 135 699T177 686T215 650Z" />
<glyph unicode="O" glyph-name="O" horiz-adv-x="692" d="M622 490V210Q622 103 553 46T346 -12Q207 -12 139 45T70 210V490Q70 597 138 654T346 712Q484 712 553 655T622 490ZM538 223V477Q538 563 499 603T345 643Q232 643 193 603T154 477V223Q154 137 193
97T345 57Q459 57 498 97T538 223Z" />
<glyph unicode="P" glyph-name="P" horiz-adv-x="581" d="M80 40V700H256Q303 700 341 695T416 674T477 635T517 571T532 479V461Q532 239 256 239H164V-10Q161 -10 155 -10T135 -7T109 0T89 15T80 40ZM256 631H164V308H256Q352 308 400 340T448 470Q448 561 399
596T256 631Z" />
<glyph unicode="Q" glyph-name="Q" horiz-adv-x="692" d="M622 490V210Q622 110 562 53T380 -11V-39Q380 -98 427 -126T542 -155Q609 -155 658 -125T707 -44Q724 -79 724 -111Q724 -169 670 -199T541 -229Q441 -229 374 -183T306 -54V-10Q187 -3 129 54T70 210V490Q70
597 138 654T346 712Q484 712 553 655T622 490ZM538 223V477Q538 563 499 603T345 643Q232 643 193 603T154 477V223Q154 137 193 97T345 57Q459 57 498 97T538 223Z" />
<glyph unicode="R" glyph-name="R" horiz-adv-x="568" d="M522 501Q522 418 466 372T319 326Q367 307 409 261T474 169T523 69T563 -5Q551 -8 534 -8Q468 -8 437 49Q428 65 410 101T383 151T358 194T330 234T299 265T262 293T218 310T164 323V-10Q161 -10 155
-10T135 -7T109 1T89 16T80 40V700H286Q522 700 522 531V501ZM286 631H164V389H294Q372 389 405 420T438 516Q438 578 402 604T286 631Z" />
<glyph unicode="S" glyph-name="S" horiz-adv-x="632" d="M88 184Q88 159 97 139T123 106T162 84T210 71T264 64T321 62Q404 62 449 98T494 195Q494 237 470 264T406 303T320 322T225 340T138 367T75 420T50 511Q50 712 316 712Q558 712 558 597Q558 562 535 516Q535
554 518 579T467 616T399 633T316 638Q138 638 138 520Q138 482 162 459T226 426T312 410T407 392T494 362T557 302T582 200Q582 98 509 43T321 -12Q65 -12 65 104Q65 139 88 184Z" />
<glyph unicode="T" glyph-name="T" horiz-adv-x="547" d="M475 631H314V-10Q311 -10 305 -10T285 -7T259 0T239 15T230 40V631H72Q32 631 17 657T2 715Q20 700 88 700H459Q489 700 510 704T538 712L545 715Q545 696 541 680T520 647T475 631Z" />
<glyph unicode="U" glyph-name="U" horiz-adv-x="692" d="M622 660V199Q622 98 543 43T346 -12T150 43T70 199V710Q73 710 79 710T99 707T125 700T145 685T154 660V214Q154 141 206 102T346 62T485 101T538 214V710Q541 710 547 710T567 707T593 700T613 685T622 660Z" />
<glyph unicode="V" glyph-name="V" horiz-adv-x="652" d="M326 -17Q321 -14 314 -7T283 25T239 81T193 163T149 272L70 522Q20 681 5 703Q14 706 31 706Q44 706 55 703T76 693T93 680T108 662T119 642T130 617T138 593T147 566T155 541L236 288Q255 228 277 182T313
119L326 103Q331 109 340 120T373 180T416 288L497 541Q499 547 505 566T513 592T522 617T532 641T544 661T558 680T575 693T596 703T621 706L647 703Q632 681 582 522L503 272Q485 214 460 163T413 81T370 26T338 -7L326 -17Z" />
<glyph unicode="W" glyph-name="W" horiz-adv-x="970" d="M326 -17Q322 -14 315 -9T286 19T244 70T198 150T153 262L70 522Q20 681 5 703Q14 706 31 706Q44 706 55 703T76 693T93 680T108 662T119 642T130 617T138 593T147 566T155 541L236 288Q255 228 277 180T313
113L326 95Q332 100 342 112T383 183T445 324Q408 475 408 598Q408 646 428 670T497 695Q492 645 492 606Q492 523 507 440T545 297T590 190T628 118L644 95Q690 152 734 288L815 541Q817 547 823 566T831 592T840 617T850 641T862 661T876 680T893 693T914 703T939
706L965 703Q950 681 900 522L817 262Q798 202 773 151T726 70T685 20T655 -9L644 -17Q634 -8 617 9T557 88T483 221Q467 175 445 133T402 65T365 20T336 -8L326 -17Z" />
<glyph unicode="X" glyph-name="X" horiz-adv-x="560" d="M558 702Q542 678 507 606T429 464T342 347Q387 302 429 232T506 89T558 -7Q546 -10 529 -10Q469 -10 438 47Q431 60 412 96T385 145T362 186T336 229T310 263T280 297Q267 284 256 270T232 238T211 206T188
169T168 132T145 89T122 47Q91 -10 31 -10L2 -7Q18 17 53 89T131 231T218 347Q173 393 131 463T54 606T2 702Q14 705 31 705Q91 705 122 648Q126 640 141 611T161 573T179 541T199 507T217 478T237 448T257 423T280 398Q293 411 304 425T328 457T349 489T372 526T392
563T415 606T438 648Q469 705 529 705L558 702Z" />
<glyph unicode="Y" glyph-name="Y" horiz-adv-x="560" d="M322 -10Q319 -10 313 -10T293 -7T267 1T247 16T238 41V301Q187 347 141 428T57 593T2 703Q14 706 31 706Q91 706 122 649Q137 620 170 551T227 439T280 369Q307 397 332 440T389 550T438 649Q469 706
529 706L558 703Q541 677 503 593T419 428T322 301V-10Z" />
<glyph unicode="Z" glyph-name="Z" horiz-adv-x="563" d="M488 0H32Q28 62 51 121T114 226T201 322T295 417T378 517T431 631H53Q53 634 53 638T56 655T63 676T78 692T103 700H521Q520 618 482 539T387 398T275 281T175 170T124 69H452Q482 69 503 72T532 80L538
84Q538 53 527 27T488 0Z" />
<glyph unicode="[" glyph-name="bracketleft" horiz-adv-x="278" d="M80 -30V700H257Q257 697 257 693T254 679T247 660T232 645T207 638H159V-18H207Q230 -18 242 -33T256 -64L257 -80H159Q156 -80 151 -80T132 -77T108 -70T89 -55T80 -30Z" />
<glyph unicode="\" glyph-name="backslash" horiz-adv-x="313" d="M263 -201L-12 745Q-4 748 9 750T46 748T75 721L349 -224Q346 -225 341 -226T323 -229T298 -230T277 -222T263 -201Z" />
<glyph unicode="]" glyph-name="bracketright" horiz-adv-x="278" d="M198 700V-30Q198 -52 178 -64T138 -78L119 -80H21Q21 -73 22 -63T35 -35T71 -18H119V638H71Q49 638 37 653T22 684L21 700H198Z" />
<glyph unicode="^" glyph-name="asciicircum" horiz-adv-x="546" d="M475 430L279 626L105 452Q92 441 81 441Q69 441 56 450T36 470L30 479L230 679Q257 706 279 705Q301 706 327 680L501 506Q513 494 513 480Q513 468 504 456T484 436L475 430Z" />
<glyph unicode="_" glyph-name="underscore" horiz-adv-x="545" d="M37 -9H543Q545 -20 545 -33Q545 -81 508 -81H2Q0 -71 0 -58Q0 -9 37 -9Z" />
<glyph unicode="`" glyph-name="grave" horiz-adv-x="489" d="M252 671L309 616Q324 598 315 587T285 572L265 567L185 632Q155 656 148 679T152 718T180 746T214 763Q208 751 208 740Q208 715 252 671Z" />
<glyph unicode="a" glyph-name="a" horiz-adv-x="509" d="M367 79V276Q361 254 322 242T241 225T165 197T130 134Q130 98 159 75T249 52Q281 52 310 59T354 72L367 79ZM50 135Q50 189 79 222T151 268T238 291T318 314T364 355Q364 397 339 419T248 442Q176 442
134 415T92 336Q65 374 65 409Q65 458 118 485T248 512Q343 512 393 470T444 351V-7Q413 6 378 6Q356 6 310 -3T235 -12Q158 -12 104 24T50 135Z" />
<glyph unicode="b" glyph-name="b" horiz-adv-x="531" d="M471 354V147Q471 71 417 30T261 -12Q214 -12 157 4T70 24V747Q78 747 86 746T112 741T139 722T150 687V548Q150 518 148 495T142 464L140 457Q144 463 153 472T202 496T296 512Q369 512 420 469T471 354ZM150
349V78Q184 53 259 53T362 79T391 162V339Q391 393 362 420T283 447Q231 447 191 419T150 349Z" />
<glyph unicode="c" glyph-name="c" horiz-adv-x="498" d="M432 164Q472 106 453 67T384 8T266 -12Q170 -12 115 31T60 149V351Q60 426 115 469T266 512Q328 512 374 492T436 433T412 336Q412 386 371 414T272 442Q203 442 172 416T140 336V164Q140 111 171 85T272
58T386 86T432 164Z" />
<glyph unicode="d" glyph-name="d" horiz-adv-x="531" d="M381 78V349Q381 391 341 419T248 447Q199 447 170 420T140 339V162Q140 105 168 79T272 53Q305 53 332 59T370 72L381 78ZM60 147V354Q60 426 111 469T235 512Q289 512 328 498T379 470L391 457Q381 480
381 548V747Q389 747 397 746T423 741T450 722T461 687V-7Q432 6 393 6Q374 6 330 -3T260 -12Q165 -12 113 29T60 147Z" />
<glyph unicode="e" glyph-name="e" horiz-adv-x="508" d="M432 164Q458 126 458 94Q458 44 402 16T266 -12Q170 -12 115 31T60 149V351Q60 427 113 469T262 512Q355 512 403 472T452 361Q452 295 403 254T250 213Q174 213 140 237V164Q140 111 171 85T272 58T386
86T432 164ZM140 336V301Q141 300 157 296T199 287T244 283Q372 283 372 361Q372 447 262 447Q140 447 140 336Z" />
<glyph unicode="f" glyph-name="f" horiz-adv-x="334" d="M70 43V619Q70 691 134 735T284 780Q357 780 409 757T462 689Q462 657 435 628Q435 667 390 688T284 710Q226 710 188 682T150 604V485H339Q339 477 338 466T324 435T289 416H150V-7Q147 -7 142 -7T122
-4T98 3T79 18T70 43Z" />
<glyph unicode="g" glyph-name="g" horiz-adv-x="497" d="M40 109Q40 154 87 206Q55 246 55 307V364Q55 440 106 476T233 512Q262 512 308 503T377 493Q414 493 447 509V307Q447 231 397 189T251 146Q212 146 180 153T134 168L122 176Q114 141 114 123Q114 85
140 74T234 62H267Q302 62 325 61T377 52T424 31T454 -8T467 -71Q467 -150 413 -196T251 -242Q162 -242 105 -215T48 -138Q48 -104 75 -66Q75 -119 121 -148T251 -177Q387 -177 387 -75Q387 -31 357 -18T264 -5H215Q184 -5 163 -4T117 4T76 23T51 56T40 109ZM135
322Q135 266 160 239T251 211T342 238T367 322V424Q320 448 247 448Q182 448 159 426T135 349V322Z" />
<glyph unicode="h" glyph-name="h" horiz-adv-x="541" d="M150 349V-7Q147 -7 142 -7T122 -4T98 3T79 18T70 43V747Q78 747 86 746T111 741T139 722T150 687V548Q150 518 148 495T142 464L140 457Q144 463 153 472T202 496T296 512Q369 512 420 469T471 354V-7Q468
-7 463 -7T443 -4T419 4T400 19T391 43V339Q391 393 362 420T283 447Q231 447 191 419T150 349Z" />
<glyph unicode="i" glyph-name="i" horiz-adv-x="220" d="M70 43V507Q79 507 92 506T128 493T150 457V-7Q147 -7 142 -7T122 -4T98 3T79 18T70 43ZM70 620V686H133Q140 686 145 681T150 668V602H88Q80 602 75 607T70 620Z" />
<glyph unicode="j" glyph-name="j" horiz-adv-x="220" d="M149 457V-97Q149 -156 124 -197T56 -239Q26 -239 -3 -214Q22 -214 39 -189T62 -131T69 -65V507Q72 507 77 507T97 504T121 497T140 482T149 457ZM70 620V686H133Q140 686 145 681T150 668V602H88Q80 602
75 607T70 620Z" />
<glyph unicode="k" glyph-name="k" horiz-adv-x="483" d="M253 290Q302 279 339 252T397 190T433 121T460 51T483 0Q454 -7 441 -7Q414 -7 397 11T371 56T347 115T313 176T251 226T150 253V-7Q147 -7 142 -7T122 -4T98 3T79 18T70 43V749Q73 749 78 749T98 746T122
739T141 724T150 699V318Q215 318 252 351T334 466Q356 507 417 507Q432 507 447 503Q439 491 414 448T371 377T320 322T253 290Z" />
<glyph unicode="l" glyph-name="l" horiz-adv-x="220" d="M65 135V749Q71 749 80 748T106 743T134 728T145 699V167Q145 133 151 101T175 44T217 18Q188 -7 158 -7Q112 -7 89 33T65 135Z" />
<glyph unicode="m" glyph-name="m" horiz-adv-x="862" d="M712 43V347Q712 445 591 445Q537 445 504 422T471 364V-7Q468 -7 463 -7T443 -4T419 3T400 18T391 43V347Q391 399 364 422T270 445Q238 445 208 440T164 428L150 422V-7Q147 -7 142 -7T122 -4T98 3T79
18T70 43V507Q109 489 127 489Q152 489 203 500T284 512Q330 512 372 498T434 458Q491 512 609 512Q685 512 738 474T792 359V-7Q789 -7 784 -7T764 -4T740 4T721 19T712 43Z" />
<glyph unicode="n" glyph-name="n" horiz-adv-x="541" d="M391 43V347Q391 395 363 420T270 445Q238 445 208 440T164 429L150 424V-7Q147 -7 142 -7T122 -4T98 3T79 18T70 43V507Q101 491 135 491Q158 491 206 501T284 512Q364 512 417 478T471 362V-7Q468 -7
463 -7T443 -4T419 4T400 19T391 43Z" />
<glyph unicode="o" glyph-name="o" horiz-adv-x="552" d="M492 351V149Q492 72 438 30T276 -12T114 30T60 149V351Q60 428 114 470T276 512T438 470T492 351ZM412 164V336Q412 393 384 420T276 447T168 420T140 336V164Q140 107 168 80T276 53T384 80T412 164Z" />
<glyph unicode="p" glyph-name="p" horiz-adv-x="531" d="M70 -187V507Q96 496 120 495T161 497T206 507T261 512Q363 512 417 471T471 353V146Q471 74 420 31T296 -12Q262 -12 234 -7T189 7T161 24T144 38L140 43Q150 20 150 -48V-187V-247Q142 -247 134 -246T108
-241T81 -222T70 -187ZM150 424V151Q150 109 190 81T283 53Q332 53 361 80T391 161V338Q391 395 363 421T259 447Q226 447 199 442T160 430L150 424Z" />
<glyph unicode="q" glyph-name="q" horiz-adv-x="531" d="M60 146V353Q60 429 114 470T270 512Q302 512 343 503T403 494Q432 494 461 507V-247Q453 -247 445 -246T419 -241T392 -222T381 -187V-48Q381 -18 383 5T388 36L391 43Q387 37 378 28T329 4T235 -12Q162
-12 111 31T60 146ZM381 151V424Q347 447 272 447T169 421T140 338V161Q140 107 169 80T248 53Q300 53 340 81T381 151Z" />
<glyph unicode="r" glyph-name="r" horiz-adv-x="380" d="M246 441Q222 441 198 437T162 428L150 424V-7Q147 -7 142 -7T122 -4T98 3T79 18T70 43V507Q101 491 131 491Q150 491 191 501T262 512Q316 512 348 491T380 431Q380 398 352 360Q352 399 322 420T246 441Z" />
<glyph unicode="s" glyph-name="s" horiz-adv-x="482" d="M40 356Q40 432 90 472T236 512Q319 512 370 488T421 416Q421 381 392 336Q392 442 236 442Q169 442 145 423T120 356Q120 329 144 315T203 299T281 291T358 273T418 228T442 140Q442 70 389 29T236 -12Q151
-12 97 12T43 87Q43 121 70 164Q70 112 114 85T236 58Q308 58 335 80T362 145Q362 178 338 196T279 217T201 226T124 240T64 277T40 356Z" />
<glyph unicode="t" glyph-name="t" horiz-adv-x="415" d="M70 149V619Q73 619 78 619T98 615T122 608T141 593T150 568V485H359Q359 477 358 466T344 435T309 416H150V177Q150 119 174 89T254 58Q308 58 345 86T382 164Q409 124 409 90Q409 42 361 15T246 -12Q165
-12 118 31T70 149Z" />
<glyph unicode="u" glyph-name="u" horiz-adv-x="541" d="M150 457V153Q150 105 178 80T271 55Q303 55 333 60T377 71L391 76V507Q394 507 399 507T419 504T443 497T462 482T471 457V-7Q440 9 406 9Q383 9 335 -1T257 -12Q177 -12 124 22T70 138V507Q73 507 78
507T98 504T122 496T141 481T150 457Z" />
<glyph unicode="v" glyph-name="v" horiz-adv-x="490" d="M460 507L440 312Q434 248 411 191T363 98T308 34T264 -5T245 -18Q240 -16 226 -6T183 33T128 97T79 190T50 312L30 507Q33 507 38 507T57 504T81 497T101 482T113 457L133 290Q141 228 169 173T221 94L245
69Q249 72 255 78T279 106T310 152T338 213T357 290L377 457Q380 479 400 491T440 506L460 507Z" />
<glyph unicode="w" glyph-name="w" horiz-adv-x="782" d="M30 507Q33 507 38 507T57 504T81 497T101 482T113 457L133 290Q141 228 169 173T221 94L245 69Q248 71 254 74T276 90T307 117T337 153T362 199Q338 269 338 365Q338 426 354 460T426 497Q416 431 416
371Q416 305 428 250T458 164T494 110T524 78L537 70V69Q541 72 547 78T571 106T602 152T630 213T649 290L669 457Q672 479 692 491T732 506L752 507L732 312Q725 248 703 191T653 97T599 33T555 -6L537 -18Q534 -16 528 -13T505 1T472 27T435 66T398 119Q372 78
334 44T270 -4L245 -18Q238 -14 227 -6T184 32T128 97T80 190T50 312L30 507Z" />
<glyph unicode="x" glyph-name="x" horiz-adv-x="448" d="M320 41L224 202L128 41Q99 -7 41 -7L10 -4Q20 9 50 59L120 177L168 250Q144 282 120 323L50 441Q20 491 10 504Q27 507 41 507Q97 507 126 459L224 299L322 459Q351 507 407 507L438 504Q428 491 398
441L328 323L280 250Q304 218 328 177L398 59Q428 9 438 -4Q421 -7 407 -7Q349 -7 320 41Z" />
<glyph unicode="y" glyph-name="y" horiz-adv-x="500" d="M40 507Q43 507 48 507T67 504T91 497T111 482T123 457L143 290Q149 237 177 190T230 120L255 99Q259 102 265 107T290 132T322 171T349 224T367 290L387 457Q390 479 410 491T450 506L470 507L450 312Q440
221 398 154T302 45L263 15Q201 -33 173 -67T145 -149Q145 -189 168 -239Q158 -244 146 -244Q115 -244 90 -222T64 -144Q64 -84 101 -36T202 57Q157 79 113 150T60 312L40 507Z" />
<glyph unicode="z" glyph-name="z" horiz-adv-x="445" d="M320 431H45Q45 434 45 438T48 455T55 476T70 492T95 500H414Q411 488 407 464T398 427Q385 382 353 336T283 254T210 185T149 122T120 69H420Q420 66 420 62T417 45T410 24T395 8T370 0H35Q33 9 33 28Q33
73 56 115T116 192T191 262T266 341T320 431Z" />
<glyph unicode="{" glyph-name="braceleft" horiz-adv-x="256" d="M20 272Q22 273 26 275T41 285T59 303T73 331T80 370V640Q80 716 130 737T236 703Q164 703 164 604V365Q164 345 158 329T143 302T125 284T110 274L104 270Q106 269 110 267T125 258T143 240T157
214T164 177V-62Q164 -161 236 -161Q181 -216 131 -195T80 -98V172Q80 187 77 201T68 224T57 242T44 256T32 264T24 270L20 272Z" />
<glyph unicode="|" glyph-name="bar" horiz-adv-x="240" d="M80 -192V750Q83 750 88 750T108 747T132 740T151 725T160 700V-242Q157 -242 152 -242T132 -239T108 -232T89 -217T80 -192Z" />
<glyph unicode="}" glyph-name="braceright" horiz-adv-x="256" d="M236 272L232 270Q229 268 224 265T213 256T200 243T188 225T180 201T176 172V-98Q176 -174 126 -195T20 -161Q92 -161 92 -62V177Q92 197 98 213T113 240T131 257T146 267L152 270L146 274Q140
277 131 284T113 301T98 328T92 365V604Q92 703 20 703Q75 758 125 737T176 640V370Q176 337 191 313T221 280L236 272Z" />
<glyph unicode="~" glyph-name="asciitilde" horiz-adv-x="635" d="M44 312Q40 334 40 346Q40 374 61 392T132 411Q177 411 318 385T508 359Q570 359 591 388Q591 384 593 373T595 356Q595 288 503 288Q457 288 316 314T128 340Q64 340 44 312Z" />
</font>
</defs>
</svg>
